<mxfile host="Electron" modified="2025-04-25T14:03:00.123Z" agent="Mozilla/5.0" etag="vwx012" version="21.6.8" type="device">
  <diagram name="Climate Health Roadmap" id="climate-health-roadmap">
    <mxGraphModel dx="1422" dy="762" grid="1" gridSize="10" guides="1" tooltips="1" connect="1" arrows="1" fold="1" page="1" pageScale="1" pageWidth="1100" pageHeight="850" math="0" shadow="0">
      <root>
        <mxCell id="0" />
        <mxCell id="1" parent="0" />
        
        <!-- Title -->
        <mxCell id="2" value="&lt;font style=&quot;font-size: 20px;&quot;&gt;&lt;b&gt;Climate-Health Action Roadmap for TASK&lt;/b&gt;&lt;/font&gt;" style="text;html=1;strokeColor=none;fillColor=none;align=center;verticalAlign=middle;whiteSpace=wrap;rounded=0;fontColor=#00539B;" vertex="1" parent="1">
          <mxGeometry x="270" y="20" width="560" height="30" as="geometry" />
        </mxCell>
        
        <!-- Timeline Background -->
        <mxCell id="3" value="" style="rounded=1;whiteSpace=wrap;html=1;fillColor=#F5F5F5;strokeColor=#666666;" vertex="1" parent="1">
          <mxGeometry x="100" y="70" width="900" height="480" as="geometry" />
        </mxCell>
        
        <!-- Timeline Arrow -->
        <mxCell id="4" value="" style="endArrow=classic;html=1;rounded=0;strokeWidth=6;strokeColor=#00539B;" edge="1" parent="1">
          <mxGeometry width="50" height="50" relative="1" as="geometry">
            <mxPoint x="150" y="310" as="sourcePoint" />
            <mxPoint x="950" y="310" as="targetPoint" />
          </mxGeometry>
        </mxCell>
        
        <!-- Phase 1: Carbon Audit -->
        <mxCell id="5" value="" style="rounded=1;whiteSpace=wrap;html=1;fillColor=#E6F2FF;strokeColor=#00539B;" vertex="1" parent="1">
          <mxGeometry x="170" y="190" width="160" height="100" as="geometry" />
        </mxCell>
        
        <mxCell id="6" value="&lt;font style=&quot;font-size: 14px;&quot;&gt;&lt;b&gt;PHASE 1&lt;br&gt;Carbon Audit&lt;/b&gt;&lt;/font&gt;" style="text;html=1;strokeColor=none;fillColor=none;align=center;verticalAlign=middle;whiteSpace=wrap;rounded=0;fontColor=#00539B;" vertex="1" parent="1">
          <mxGeometry x="195" y="200" width="110" height="30" as="geometry" />
        </mxCell>
        
        <mxCell id="7" value="&lt;div style=&quot;text-align: left&quot;&gt;&lt;span&gt;• Baseline assessment&lt;/span&gt;&lt;/div&gt;&lt;div style=&quot;text-align: left&quot;&gt;&lt;span&gt;• Identify hotspots&lt;/span&gt;&lt;/div&gt;&lt;div style=&quot;text-align: left&quot;&gt;&lt;span&gt;• Set reduction targets&lt;/span&gt;&lt;/div&gt;" style="text;html=1;strokeColor=none;fillColor=none;align=center;verticalAlign=middle;whiteSpace=wrap;rounded=0;" vertex="1" parent="1">
          <mxGeometry x="180" y="240" width="140" height="50" as="geometry" />
        </mxCell>
        
        <mxCell id="8" value="Q3 2025" style="text;html=1;strokeColor=none;fillColor=none;align=center;verticalAlign=middle;whiteSpace=wrap;rounded=0;fontStyle=1" vertex="1" parent="1">
          <mxGeometry x="210" y="330" width="80" height="20" as="geometry" />
        </mxCell>
        
        <!-- Phase 2: Action Plan -->
        <mxCell id="9" value="" style="rounded=1;whiteSpace=wrap;html=1;fillColor=#F0FFF0;strokeColor=#228B22;" vertex="1" parent="1">
          <mxGeometry x="370" y="190" width="160" height="100" as="geometry" />
        </mxCell>
        
        <mxCell id="10" value="&lt;font style=&quot;font-size: 14px;&quot;&gt;&lt;b&gt;PHASE 2&lt;br&gt;Action Plan&lt;/b&gt;&lt;/font&gt;" style="text;html=1;strokeColor=none;fillColor=none;align=center;verticalAlign=middle;whiteSpace=wrap;rounded=0;fontColor=#228B22;" vertex="1" parent="1">
          <mxGeometry x="395" y="200" width="110" height="30" as="geometry" />
        </mxCell>
        
        <mxCell id="11" value="&lt;div style=&quot;text-align: left&quot;&gt;• Prioritize actions&lt;/div&gt;&lt;div style=&quot;text-align: left&quot;&gt;• Budget allocation&lt;/div&gt;&lt;div style=&quot;text-align: left&quot;&gt;• Staff training&lt;/div&gt;" style="text;html=1;strokeColor=none;fillColor=none;align=center;verticalAlign=middle;whiteSpace=wrap;rounded=0;" vertex="1" parent="1">
          <mxGeometry x="380" y="240" width="140" height="50" as="geometry" />
        </mxCell>
        
        <mxCell id="12" value="Q4 2025" style="text;html=1;strokeColor=none;fillColor=none;align=center;verticalAlign=middle;whiteSpace=wrap;rounded=0;fontStyle=1" vertex="1" parent="1">
          <mxGeometry x="410" y="330" width="80" height="20" as="geometry" />
        </mxCell>
        
        <!-- Phase 3: Implementation -->
        <mxCell id="13" value="" style="rounded=1;whiteSpace=wrap;html=1;fillColor=#FFF0F0;strokeColor=#B22222;" vertex="1" parent="1">
          <mxGeometry x="570" y="190" width="160" height="100" as="geometry" />
        </mxCell>
        
        <mxCell id="14" value="&lt;font style=&quot;font-size: 14px;&quot;&gt;&lt;b&gt;PHASE 3&lt;br&gt;Implementation&lt;/b&gt;&lt;/font&gt;" style="text;html=1;strokeColor=none;fillColor=none;align=center;verticalAlign=middle;whiteSpace=wrap;rounded=0;fontColor=#B22222;" vertex="1" parent="1">
          <mxGeometry x="595" y="200" width="110" height="30" as="geometry" />
        </mxCell>
        
        <mxCell id="15" value="&lt;div style=&quot;text-align: left&quot;&gt;• Pilot projects&lt;/div&gt;&lt;div style=&quot;text-align: left&quot;&gt;• Process changes&lt;/div&gt;&lt;div style=&quot;text-align: left&quot;&gt;• Equipment upgrades&lt;/div&gt;" style="text;html=1;strokeColor=none;fillColor=none;align=center;verticalAlign=middle;whiteSpace=wrap;rounded=0;" vertex="1" parent="1">
          <mxGeometry x="580" y="240" width="140" height="50" as="geometry" />
        </mxCell>
        
        <mxCell id="16" value="H1 2026" style="text;html=1;strokeColor=none;fillColor=none;align=center;verticalAlign=middle;whiteSpace=wrap;rounded=0;fontStyle=1" vertex="1" parent="1">
          <mxGeometry x="610" y="330" width="80" height="20" as="geometry" />
        </mxCell>
        
        <!-- Phase 4: Leadership -->
        <mxCell id="17" value="" style="rounded=1;whiteSpace=wrap;html=1;fillColor=#FFF5E6;strokeColor=#FF8C00;" vertex="1" parent="1">
          <mxGeometry x="770" y="190" width="160" height="100" as="geometry" />
        </mxCell>
        
        <mxCell id="18" value="&lt;font style=&quot;font-size: 14px;&quot;&gt;&lt;b&gt;PHASE 4&lt;br&gt;Leadership&lt;/b&gt;&lt;/font&gt;" style="text;html=1;strokeColor=none;fillColor=none;align=center;verticalAlign=middle;whiteSpace=wrap;rounded=0;fontColor=#FF8C00;" vertex="1" parent="1">
          <mxGeometry x="795" y="200" width="110" height="30" as="geometry" />
        </mxCell>
        
        <mxCell id="19" value="&lt;div style=&quot;text-align: left&quot;&gt;• Industry advocacy&lt;/div&gt;&lt;div style=&quot;text-align: left&quot;&gt;• Best practice sharing&lt;/div&gt;&lt;div style=&quot;text-align: left&quot;&gt;• Policy development&lt;/div&gt;" style="text;html=1;strokeColor=none;fillColor=none;align=center;verticalAlign=middle;whiteSpace=wrap;rounded=0;" vertex="1" parent="1">
          <mxGeometry x="780" y="240" width="140" height="50" as="geometry" />
        </mxCell>
        
        <mxCell id="20" value="H2 2026" style="text;html=1;strokeColor=none;fillColor=none;align=center;verticalAlign=middle;whiteSpace=wrap;rounded=0;fontStyle=1" vertex="1" parent="1">
          <mxGeometry x="810" y="330" width="80" height="20" as="geometry" />
        </mxCell>
        
        <!-- Connecting Arrows -->
        <mxCell id="21" value="" style="shape=flexArrow;endArrow=classic;html=1;rounded=0;fillColor=#00539B;strokeColor=none;width=10;endSize=4;" edge="1" parent="1">
          <mxGeometry width="50" height="50" relative="1" as="geometry">
            <mxPoint x="330" y="240" as="sourcePoint" />
            <mxPoint x="370" y="240" as="targetPoint" />
          </mxGeometry>
        </mxCell>
        
        <mxCell id="22" value="" style="shape=flexArrow;endArrow=classic;html=1;rounded=0;fillColor=#00539B;strokeColor=none;width=10;endSize=4;" edge="1" parent="1">
          <mxGeometry width="50" height="50" relative="1" as="geometry">
            <mxPoint x="530" y="240" as="sourcePoint" />
            <mxPoint x="570" y="240" as="targetPoint" />
          </mxGeometry>
        </mxCell>
        
        <mxCell id="23" value="" style="shape=flexArrow;endArrow=classic;html=1;rounded=0;fillColor=#00539B;strokeColor=none;width=10;endSize=4;" edge="1" parent="1">
          <mxGeometry width="50" height="50" relative="1" as="geometry">
            <mxPoint x="730" y="240" as="sourcePoint" />
            <mxPoint x="770" y="240" as="targetPoint" />
          </mxGeometry>
        </mxCell>
        
        <!-- Key Performance Indicators -->
        <mxCell id="24" value="&lt;b&gt;Key Performance Indicators&lt;/b&gt;" style="text;html=1;strokeColor=none;fillColor=none;align=center;verticalAlign=middle;whiteSpace=wrap;rounded=0;fontSize=16;fontColor=#00539B;" vertex="1" parent="1">
          <mxGeometry x="400" y="370" width="300" height="30" as="geometry" />
        </mxCell>
        
        <!-- KPI 1: Carbon Reduction -->
        <mxCell id="25" value="" style="rounded=1;whiteSpace=wrap;html=1;fillColor=#00539B;strokeColor=#00539B;opacity=10;" vertex="1" parent="1">
          <mxGeometry x="170" y="410" width="260" height="110" as="geometry" />
        </mxCell>
        
        <mxCell id="26" value="&lt;font style=&quot;font-size: 14px;&quot;&gt;&lt;b&gt;Carbon Reduction&lt;/b&gt;&lt;/font&gt;" style="text;html=1;strokeColor=none;fillColor=none;align=center;verticalAlign=middle;whiteSpace=wrap;rounded=0;fontColor=#00539B;" vertex="1" parent="1">
          <mxGeometry x="215" y="420" width="170" height="20" as="geometry" />
        </mxCell>
        
        <mxCell id="27" value="Target: 30% reduction in CO₂e by 2026" style="text;html=1;strokeColor=none;fillColor=none;align=center;verticalAlign=middle;whiteSpace=wrap;rounded=0;" vertex="1" parent="1">
          <mxGeometry x="175" y="450" width="250" height="20" as="geometry" />
        </mxCell>
        
        <mxCell id="28" value="Measurement: Quarterly carbon accounting&#xa;across all trial operations" style="text;html=1;strokeColor=none;fillColor=none;align=center;verticalAlign=middle;whiteSpace=wrap;rounded=0;" vertex="1" parent="1">
          <mxGeometry x="175" y="480" width="250" height="30" as="geometry" />
        </mxCell>
        
        <!-- KPI 2: Cost Efficiency -->
        <mxCell id="29" value="" style="rounded=1;whiteSpace=wrap;html=1;fillColor=#228B22;strokeColor=#228B22;opacity=10;" vertex="1" parent="1">
          <mxGeometry x="450" y="410" width="260" height="110" as="geometry" />
        </mxCell>
        
        <mxCell id="30" value="&lt;font style=&quot;font-size: 14px;&quot;&gt;&lt;b&gt;Cost Efficiency&lt;/b&gt;&lt;/font&gt;" style="text;html=1;strokeColor=none;fillColor=none;align=center;verticalAlign=middle;whiteSpace=wrap;rounded=0;fontColor=#228B22;" vertex="1" parent="1">
          <mxGeometry x="495" y="420" width="170" height="20" as="geometry" />
        </mxCell>
        
        <mxCell id="31" value="Target: 15% operational cost savings" style="text;html=1;strokeColor=none;fillColor=none;align=center;verticalAlign=middle;whiteSpace=wrap;rounded=0;" vertex="1" parent="1">
          <mxGeometry x="455" y="450" width="250" height="20" as="geometry" />
        </mxCell>
        
        <mxCell id="32" value="Measurement: Cost per participant&#xa;compared to baseline" style="text;html=1;strokeColor=none;fillColor=none;align=center;verticalAlign=middle;whiteSpace=wrap;rounded=0;" vertex="1" parent="1">
          <mxGeometry x="455" y="480" width="250" height="30" as="geometry" />
        </mxCell>
        
        <!-- KPI 3: Funding Success -->
        <mxCell id="33" value="" style="rounded=1;whiteSpace=wrap;html=1;fillColor=#B22222;strokeColor=#B22222;opacity=10;" vertex="1" parent="1">
          <mxGeometry x="730" y="410" width="260" height="110" as="geometry" />
        </mxCell>
        
        <mxCell id="34" value="&lt;font style=&quot;font-size: 14px;&quot;&gt;&lt;b&gt;Funding Success&lt;/b&gt;&lt;/font&gt;" style="text;html=1;strokeColor=none;fillColor=none;align=center;verticalAlign=middle;whiteSpace=wrap;rounded=0;fontColor=#B22222;" vertex="1" parent="1">
          <mxGeometry x="775" y="420" width="170" height="20" as="geometry" />
        </mxCell>
        
        <mxCell id="35" value="Target: 100% of proposals with climate elements" style="text;html=1;strokeColor=none;fillColor=none;align=center;verticalAlign=middle;whiteSpace=wrap;rounded=0;" vertex="1" parent="1">
          <mxGeometry x="735" y="450" width="250" height="20" as="geometry" />
        </mxCell>
        
        <mxCell id="36" value="Measurement: Proposal success rate&#xa;and funder feedback on sustainability" style="text;html=1;strokeColor=none;fillColor=none;align=center;verticalAlign=middle;whiteSpace=wrap;rounded=0;" vertex="1" parent="1">
          <mxGeometry x="735" y="480" width="250" height="30" as="geometry" />
        </mxCell>
        
        <!-- Quick Wins -->
        <mxCell id="37" value="&lt;b&gt;Quick Wins (Next 3 Months)&lt;/b&gt;" style="swimlane;fontStyle=0;childLayout=stackLayout;horizontal=1;startSize=30;horizontalStack=0;resizeParent=1;resizeParentMax=0;resizeLast=0;collapsible=1;marginBottom=0;whiteSpace=wrap;html=1;fillColor=#00539B;fontColor=#FFFFFF;" vertex="1" parent="1">
          <mxGeometry x="230" y="90" width="640" height="90" as="geometry" />
        </mxCell>
        <mxCell id="38" value="1. Appoint climate-health champion from leadership team" style="text;strokeColor=none;fillColor=none;align=left;verticalAlign=middle;spacingLeft=4;spacingRight=4;overflow=hidden;points=[[0,0.5],[1,0.5]];portConstraint=eastwest;rotatable=0;whiteSpace=wrap;html=1;" vertex="1" parent="37">
          <mxGeometry y="30" width="640" height="30" as="geometry" />
        </mxCell>
        <mxCell id="39" value="2. Join MyGreenLab certification program for early laboratory sustainability improvements" style="text;strokeColor=none;fillColor=none;align=left;verticalAlign=middle;spacingLeft=4;spacingRight=4;overflow=hidden;points=[[0,0.5],[1,0.5]];portConstraint=eastwest;rotatable=0;whiteSpace=wrap;html=1;" vertex="1" parent="37">
          <mxGeometry y="60" width="640" height="30" as="geometry" />
        </mxCell>
        
        <!-- Additional Guidance -->
        <mxCell id="40" value="&lt;i&gt;Healing without harming: Making climate-smart clinical research a reality&lt;/i&gt;" style="text;html=1;strokeColor=none;fillColor=none;align=center;verticalAlign=middle;whiteSpace=wrap;rounded=0;fontColor=#00539B;fontStyle=1;fontSize=14;" vertex="1" parent="1">
          <mxGeometry x="360" y="560" width="380" height="30" as="geometry" />
        </mxCell>
        
        <!-- Footer with source -->
        <mxCell id="41" value="Source: WHO COP26 Health Programme" style="text;html=1;strokeColor=none;fillColor=none;align=right;verticalAlign=middle;whiteSpace=wrap;rounded=0;fontColor=#666666;fontSize=10;" vertex="1" parent="1">
          <mxGeometry x="600" y="590" width="200" height="20" as="geometry" />
        </mxCell>
      </root>
    </mxGraphModel>
  </diagram>
</mxfile>
